<?xml version="1.0" encoding="UTF-8" standalone="no"?>
<!-- Created with Inkscape (http://www.inkscape.org/) -->

<svg
   width="479.42499mm"
   height="479.42502mm"
   viewBox="0 0 479.42499 479.42502"
   version="1.1"
   id="svg1"
   xmlns="http://www.w3.org/2000/svg"
   xmlns:svg="http://www.w3.org/2000/svg">
  <defs
     id="defs1" />
  <g
     id="layer1"
     transform="translate(2234.1417,667.80837)">
    <path
       id="rect23"
       style="fill:#fa426c;fill-opacity:1;stroke-width:86.637;stroke-linecap:square;stroke-linejoin:round;paint-order:stroke fill markers"
       d="m -2164.1418,-667.80833 c -38.78,0 -69.9999,36.89346 -69.9999,82.72105 v 313.9829 c 0,45.82758 31.2199,82.72105 69.9999,82.72105 h 339.4253 c 38.78,0 69.9998,-36.89347 69.9998,-82.72105 v -313.9829 c 0,-45.82759 -31.2198,-82.72105 -69.9998,-82.72105 z m 42.4465,182.71339 h 77.7885 v 88.90104 h 33.3381 v -55.56354 h -22.2256 v -33.3375 h 55.5631 v 100.01354 l -5.5563,11.1125 -5.5562,5.55625 -11.1125,5.55625 h -77.7886 v -88.90104 h -33.3375 v 55.56354 h 22.225 v 33.3375 h -55.563 v -100.01354 l 5.5562,-11.1125 5.5563,-5.55625 z m 177.8021,0 h 144.464 v 55.56302 h -33.3375 v -22.22552 h -100.014 v 88.90104 h -33.3375 v -100.01354 l 5.5562,-11.1125 5.5563,-5.55625 z m 22.2255,44.45052 h 77.788 v 33.3375 h -77.788 z m -222.2526,85.95031 h 166.6891 v 33.3375 h -66.6756 v 88.90103 h -33.338 v -88.90103 h -66.6755 z m 200.0271,0 h 144.464 v 33.3375 h -133.3515 v 11.11301 h 133.3515 v 55.56302 l -5.5562,11.1125 -5.5563,5.55625 -11.1125,5.55625 h -144.464 v -33.3375 h 133.3515 v -11.11302 h -133.3515 v -55.56301 l 5.5562,-11.1125 5.5563,-5.55625 z" />
  </g>
</svg>
